<svg id="Capa_1" enable-background="new 0 0 512 512" height="512" viewBox="0 0 512 512" width="512" xmlns="http://www.w3.org/2000/svg"><g><g><path d="m331 361h-30l-30 30h-15-15l-30-30h-30c-74.559 0-135 60.441-135 135v16h210 210v-16c0-74.559-60.441-135-135-135z" fill="#5a5a5a"/></g><g><path d="m466 496c0-74.559-60.441-135-135-135h-30l-30 30h-15v121h210z" fill="#444"/></g><g><path d="m256 316h-45v75c0 24.853 20.147 45 45 45s45-20.147 45-45v-75z" fill="#fc9"/></g><g><path d="m301 391v-75h-45v120c24.853 0 45-20.147 45-45z" fill="#ffb366"/></g><g><path d="m256 181h-120v60c0 66.301 53.699 120 120 120s120-53.699 120-120v-60z" fill="#a34f3e"/><path d="m376 241v-60h-120v180c66.301 0 120-53.699 120-120z" fill="#873f2e"/></g><path d="m337.301 91h-81.301-88.801l-31.199 30v60c0 36.599 22.2 70.499 55.201 84 22.798 9.6 46.199 7.8 64.799-4.799 10.8 7.2 23.101 10.8 36 10.8 43.341 0 84-39.86 84-90v-60z" fill="#ffe6cc"/><path d="m376 181v-60l-38.699-30h-81.301v169.2c10.8 7.2 23.101 10.8 36 10.8 43.341 0 84-39.86 84-90z" fill="#fc9"/><g><path d="m196 181h30v30h-30z" fill="#5a5a5a"/></g><g><path d="m286 181h30v30h-30z" fill="#444"/></g><path d="m342.309 25.635-12.159-25.635-40.122 23.013-8.628-23.013h-25.4-.044c-66.138 0-119.956 54.818-119.956 120.956v.044h120 119.854l18.647-117.001z" fill="#a34f3e"/><path d="m394.501 3.999-52.192 21.636-12.159-25.635-40.122 23.013-8.628-23.013h-25.4v121h119.854z" fill="#873f2e"/></g></svg>