<svg id="Capa_1" enable-background="new 0 0 512 512" height="512" viewBox="0 0 512 512" width="512" xmlns="http://www.w3.org/2000/svg"><g><path d="m429.643 343.744-.059-.073c-6.519-7.925-12.627-18.604-12.788-22.031-.044-3.516 5.361-14.136 11.133-21.87 4.028-5.405 17.153-24.316 16.772-40.518-.396-16.318-15.19-35.127-19.541-40.298-6.299-7.778-12.407-18.545-12.583-22.471 0-.015-.044-1.274 1.025-4.233 10.166-28.081 11.382-53.745 3.618-76.304-23.686-68.745-88.476-115.946-161.22-115.946s-137.534 47.201-161.221 115.961c-7.764 22.544-6.548 48.208 3.604 76.26 1.084 2.988 1.04 4.248 1.025 4.585-.161 3.604-6.27 14.37-12.378 21.943-4.541 5.376-19.336 24.185-19.731 40.503-.381 16.201 12.744 35.112 16.802 40.562 5.64 7.515 11.147 18.34 11.118 21.46-.176 3.794-6.284 14.473-12.861 22.471-4.38 5.391-18.765 24.243-19.556 40.576-.396 15.894 12.686 34.98 16.714 40.459l26.279 35.786h150.205 150.205l26.279-35.786c4.028-5.479 17.109-24.565 16.699-40.811-.776-15.982-15.161-34.834-19.54-40.225z" fill="#5a5a5a"/><path d="m432.484 424.779c4.028-5.479 17.109-24.565 16.699-40.811-.776-15.981-15.161-34.834-19.541-40.225l-.059-.073c-6.519-7.925-12.627-18.604-12.788-22.031-.044-3.516 5.361-14.136 11.133-21.87 4.028-5.405 17.153-24.316 16.772-40.518-.396-16.318-15.19-35.127-19.541-40.298-6.299-7.778-12.407-18.545-12.583-22.471 0-.015-.044-1.274 1.025-4.233 10.166-28.081 11.382-53.745 3.618-76.304-23.685-68.744-88.475-115.945-161.219-115.945v460.565h150.205z" fill="#444"/><path d="m346 362.516c-4.99-.562-9.864-1.516-15-1.516h-15v-25.107h-60-60v25.107h-15c-5.136 0-10.01.954-15 1.516l-15 28.484v60h105 105v-60z" fill="#fc9"/><path d="m361 391-15-28.484c-4.99-.562-9.864-1.516-15-1.516h-15v-25.107h-60v115.107h105z" fill="#ffb366"/><path d="m466 496c0-58.588-37.734-108.071-90-126.707l-15 51.707v58.75l15 32.25h90z" fill="#ffb366"/><path d="m136 369.293c-52.266 18.636-90 68.119-90 126.707v16h90l15-26v-65z" fill="#fc9"/><path d="m346 362.516v58.484h-90-90v-58.484c-10.41 1.17-20.436 3.367-30 6.777v142.707h120 120v-142.707c-9.564-3.41-19.59-5.607-30-6.777z" fill="#7ed8f6"/><path d="m376 369.293c-9.564-3.409-19.59-5.607-30-6.777v58.484h-90v91h120z" fill="#6aa9ff"/><path d="m256 60.099c-69.349 0-118.074 47.767-119.771 105.901l29.771 30h90 90l29.771-30c-1.796-61.542-54.164-105.901-119.771-105.901z" fill="#444"/><path d="m375.771 166c-1.796-61.542-54.164-105.901-119.771-105.901v135.901h90z" fill="#292929"/><path d="m375.771 166h-59.771c-24.62 0-46.318-12.085-60-30.463-13.682 18.378-35.38 30.463-60 30.463h-59.771c-.027.914-.229 1.785-.229 2.701v72.299c0 66.301 53.699 120 120 120s120-53.699 120-120v-72.299c0-.916-.201-1.787-.229-2.701z" fill="#ffe6cc"/><path d="m376 241v-72.299c0-.916-.201-1.787-.229-2.701h-59.771c-24.62 0-46.318-12.085-60-30.463v225.463c66.301 0 120-53.699 120-120z" fill="#fc9"/><g><path d="m196 181h30v30h-30z" fill="#5a5a5a"/></g><g><path d="m286 181h30v30h-30z" fill="#444"/></g><path d="m283.642 252.646c-4.717 11.147-15.572 18.354-27.642 18.354s-22.925-7.207-27.642-18.354l-27.627 11.719c9.434 22.25 31.128 36.635 55.269 36.635s45.835-14.385 55.269-36.636z" fill="#fa9"/><path d="m311.269 264.364-27.627-11.719c-4.717 11.148-15.572 18.355-27.642 18.355v30c24.141 0 45.835-14.385 55.269-36.636z" fill="#ff8066"/></g></svg>