<?xml version="1.0" encoding="UTF-8" standalone="no"?>
<!DOCTYPE svg PUBLIC "-//W3C//DTD SVG 1.1//EN" "http://www.w3.org/Graphics/SVG/1.1/DTD/svg11.dtd">
<svg width="100%" height="100%" viewBox="0 0 980 161" version="1.1" xmlns="http://www.w3.org/2000/svg" xmlns:xlink="http://www.w3.org/1999/xlink" xml:space="preserve" xmlns:serif="http://www.serif.com/" style="fill-rule:evenodd;clip-rule:evenodd;stroke-linejoin:round;stroke-miterlimit:2;">
    <g transform="matrix(1,0,0,1,-38.1309,-460.415)">
        <g>
            <g transform="matrix(1,0,0,1,322.932,592.766)">
                <text x="0px" y="0px" style="font-family:'KohinoorTelugu-Bold', 'Kohinoor Telugu';font-weight:700;font-size:139.652px;fill:rgb(39,39,39);">in c<tspan x="237.408px " y="0px ">o</tspan>de</text>
            </g>
            <g transform="matrix(1,0,0,1,150.688,593.098)">
                <text x="0px" y="0px" style="font-family:'KohinoorTelugu-Bold', 'Kohinoor Telugu';font-weight:700;font-size:139.652px;fill:rgb(45,45,45);">t</text>
            </g>
            <g transform="matrix(1,0,0,1,-0.309488,-2.24124)">
                <path d="M265.916,542.858L253.204,595.088L229.044,595.088L208.515,516.185L229.602,516.185L237.982,552.634C239.797,560.873 241.054,567.437 242.032,577.213L242.59,577.213C243.428,568.275 245.104,559.896 246.919,552.773L256.695,516.185L265.916,516.185L265.916,542.858Z" style="fill:rgb(255,159,0);"/>
            </g>
            <g transform="matrix(1,0,0,1,-0.162841,-2.4208)">
                <path d="M245.414,559.167C245.474,558.89 245.534,558.614 245.595,558.34L245.436,559.066L245.414,559.167ZM238.478,554.911C238.769,556.265 239.045,557.584 239.306,558.892C239.044,557.584 238.769,556.265 238.478,554.911ZM242.63,576.794C242.616,576.934 242.603,577.073 242.59,577.213L242.63,576.794ZM241.864,575.595C241.889,575.83 241.914,576.067 241.939,576.305L241.985,576.757C241.945,576.364 241.905,575.977 241.864,575.595ZM241.102,569.388C241.336,571.061 241.555,572.807 241.762,574.664C241.555,572.806 241.336,571.06 241.102,569.388ZM243.308,571.029C243.225,571.632 243.145,572.237 243.069,572.847C243.163,572.101 243.261,571.36 243.365,570.625L243.308,571.029ZM240.856,567.691C240.916,568.089 240.975,568.49 241.033,568.896C240.956,568.361 240.879,567.834 240.799,567.312L240.856,567.691ZM243.786,567.825L243.849,567.43L243.786,567.825ZM244.749,562.406L244.675,562.785L244.749,562.406L244.794,562.174L244.749,562.406ZM239.936,562.174L239.978,562.406L239.936,562.174L239.805,561.462L239.936,562.174ZM242.802,575.128C242.857,574.619 242.915,574.111 242.976,573.604C242.899,574.247 242.826,574.894 242.757,575.543L242.802,575.128ZM246.081,556.201C246.301,555.264 246.524,554.345 246.75,553.445L246.581,554.123C246.356,555.033 246.135,555.961 245.917,556.908L246.081,556.201ZM276.805,516.185L285.324,552.215C287.279,560.454 289.234,568.554 289.653,577.213L290.211,577.213C291.189,568.554 292.865,560.734 294.96,551.936L303.339,516.185L322.052,516.185L301.663,595.088L277.084,595.088L266.052,542.3L253.204,595.088L265.916,542.858L265.916,516.185L276.805,516.185Z" style="fill:rgb(245,0,21);fill-rule:nonzero;"/>
            </g>
        </g>
    </g>
    <g transform="matrix(1,0,0,1,-376.653,-677.891)">
        <text x="373.967px" y="854.331px" style="font-family:'ComicSansMS', 'Comic Sans MS', cursive;font-size:289.562px;fill:rgb(245,0,21);">&lt;</text>
        <text x="1153.46px" y="830.331px" style="font-family:'ComicSansMS-Bold', 'Comic Sans MS', cursive;font-weight:700;font-size:192px;fill:rgb(245,0,21);">/</text>
        <text x="1251.71px" y="854.331px" style="font-family:'ComicSansMS', 'Comic Sans MS', cursive;font-size:289.562px;fill:rgb(245,0,21);">&gt;</text>
    </g>
</svg>
